<?xml version="1.0" encoding="UTF-8"?>
<svg version="1.1" xmlns="http://www.w3.org/2000/svg" width="658" height="318">
<path d="M0 0 C217.14 0 434.28 0 658 0 C658 104.94 658 209.88 658 318 C440.86 318 223.72 318 0 318 C0 213.06 0 108.12 0 0 Z " fill="#FEFEFE" transform="translate(0,0)"/>
<path d="M0 0 C12.90391233 11.15897594 21.8202768 25.87022563 23.4375 43 C24.43230576 56.916181 23.69243928 68.43260476 17.4375 81 C16.73560547 82.41152344 16.73560547 82.41152344 16.01953125 83.8515625 C6.94281254 100.27610112 -7.94457763 111.26521751 -25.703125 116.63671875 C-31.78243619 118.23365517 -37.61054641 118.53815371 -43.875 118.5 C-44.97223389 118.49427979 -46.06946777 118.48855957 -47.19995117 118.48266602 C-55.91811481 118.29110764 -62.73050698 117.02349445 -70.5625 113 C-71.57957031 112.50371094 -72.59664062 112.00742188 -73.64453125 111.49609375 C-85.65369228 105.09840206 -95.16092647 96.04800166 -101.5625 84 C-102.03300781 83.11570312 -102.50351563 82.23140625 -102.98828125 81.3203125 C-111.05246959 64.90647783 -112.13387716 46.21613085 -106.29443359 28.91552734 C-102.45675722 18.87202874 -96.17082586 10.5269534 -88.5625 3 C-87.97339844 2.37738281 -87.38429688 1.75476563 -86.77734375 1.11328125 C-63.02803051 -22.11406906 -24.88308604 -19.20201617 0 0 Z " fill="#8B89A2" transform="translate(160.5625,109)"/>
<path d="M0 0 C9.9 0 19.8 0 30 0 C30 9.9 30 19.8 30 30 C28.35 28.68 26.7 27.36 25 26 C21.63994288 25.97885938 20.30267922 26.7567762 17.68823242 28.85766602 C16.91842041 29.64842529 16.1486084 30.43918457 15.35546875 31.25390625 C14.51435547 32.10791016 13.67324219 32.96191406 12.80664062 33.84179688 C11.51016602 35.18854492 11.51016602 35.18854492 10.1875 36.5625 C9.30384766 37.46419922 8.42019531 38.36589844 7.50976562 39.29492188 C5.33057938 41.52122566 3.16127083 43.75632259 1 46 C-2.74387702 44.2067958 -5.32109774 41.99307631 -8.31640625 39.14453125 C-8.87199219 38.76683594 -9.42757812 38.38914063 -10 38 C-10.99 38.33 -11.98 38.66 -13 39 C-13 54.18 -13 69.36 -13 85 C2.18 85 17.36 85 33 85 C33.53208386 80.29875158 33.53208386 80.29875158 31.6875 78.41796875 C31.130625 78.01191406 30.57375 77.60585937 30 77.1875 C29.01 76.465625 28.02 75.74375 27 75 C28.47122616 71.59646978 30.36942513 69.38744251 32.99072266 66.78222656 C33.81142242 65.96167786 34.63212219 65.14112915 35.47769165 64.29571533 C36.36419403 63.41953552 37.25069641 62.54335571 38.1640625 61.640625 C39.07127045 60.73624695 39.97847839 59.8318689 40.91317749 58.90008545 C43.31884419 56.50203542 45.73045736 54.11005382 48.14337158 51.71929932 C50.60702344 49.27614829 53.06498577 46.82728794 55.5234375 44.37890625 C60.34373573 39.58066212 65.16969843 34.78817268 70 30 C72.86145745 32.86145745 72.30024334 34.87932734 72.3125 38.875 C72.26849751 45.93147662 71.19071334 52.26593769 69 59 C68.61714844 60.25876953 68.61714844 60.25876953 68.2265625 61.54296875 C63.31021902 75.72819834 52.31481571 86.60827463 39.1875 93.3125 C24.04372063 100.64538797 8.50430176 102.6105414 -7.6328125 97.3046875 C-22.24411802 91.64323037 -33.91076993 82.3378822 -41.8515625 68.70703125 C-42.95655457 66.10240709 -43.77019691 63.54207071 -44.57177734 60.83081055 C-44.83985199 59.92711227 -45.10792664 59.023414 -45.38412476 58.09233093 C-45.58736359 57.40186172 -45.79060242 56.71139252 -46 56 C-45.39865234 55.4097554 -44.79730469 54.8195108 -44.17773438 54.21138 C-38.51425308 48.64806244 -32.86286026 43.07280636 -27.22473145 37.4837923 C-24.32563463 34.61079481 -21.4220695 31.74263467 -18.5078125 28.88500977 C-15.69581352 26.12731736 -12.89618828 23.35760629 -10.10473633 20.57912254 C-9.03735345 19.52098188 -7.96557749 18.46725386 -6.8894043 17.41805458 C-5.38316584 15.94808778 -3.89328573 14.46323177 -2.40625 12.97387695 C-1.55353516 12.13226517 -0.70082031 11.29065338 0.17773438 10.42353821 C2.18955669 8.14607053 2.18955669 8.14607053 2.40039062 5.37663269 C2.1229851 2.7416492 2.1229851 2.7416492 0 0 Z " fill="#FCFCFD" transform="translate(106,121)"/>
<path d="M0 0 C3.53937995 2.81098581 6.79967274 5.81098131 10 9 C10.84691406 9.81210938 10.84691406 9.81210938 11.7109375 10.640625 C15.25001331 14.34822823 17.63024656 18.67216682 20 23.1875 C20.32766357 23.79424561 20.65532715 24.40099121 20.99291992 25.02612305 C21.875 26.79296875 21.875 26.79296875 23 30 C21.74574151 33.70419045 19.21445689 35.99803083 16.45849609 38.68920898 C15.51767181 39.61374374 14.57684753 40.5382785 13.60751343 41.49082947 C13.1048634 41.9803755 12.60221336 42.46992153 12.08433151 42.97430229 C10.50731569 44.51181169 8.93800869 46.05680462 7.37075806 47.60426331 C2.9153467 52.00170051 -1.54962542 56.38923746 -6.02929688 60.76196289 C-8.77197745 63.44022511 -11.50234814 66.13052552 -14.22532272 68.82881355 C-15.26452796 69.85375752 -16.30838684 70.87400524 -17.35692215 71.88940239 C-18.82168367 73.30848825 -20.26989882 74.74459317 -21.71728516 76.18139648 C-22.5462027 76.99317856 -23.37512024 77.80496063 -24.22915649 78.64134216 C-26.17297717 80.8614664 -26.17297717 80.8614664 -26.45516968 83.55116272 C-26.0967931 86.48719682 -26.0967931 86.48719682 -23 90 C-33.23 90 -43.46 90 -54 90 C-54 79.77 -54 69.54 -54 59 C-52.35 60.32 -50.7 61.64 -49 63 C-46.49406414 63.69792041 -46.49406414 63.69792041 -44 63 C-41.47895775 61.16847408 -41.47895775 61.16847408 -39.13671875 58.625 C-38.25048828 57.72265625 -37.36425781 56.8203125 -36.45117188 55.890625 C-35.53916016 54.93671875 -34.62714844 53.9828125 -33.6875 53 C-32.74791008 52.03532198 -31.80716653 51.07176615 -30.86523438 50.109375 C-28.56522271 47.75038867 -26.27765966 45.38054213 -24 43 C-23.29423828 43.61488281 -23.29423828 43.61488281 -22.57421875 44.2421875 C-21.95160156 44.78101563 -21.32898438 45.31984375 -20.6875 45.875 C-20.07261719 46.40867188 -19.45773438 46.94234375 -18.82421875 47.4921875 C-16.86501788 49.1640447 -16.86501788 49.1640447 -14 51 C-11.84725052 50.69159401 -11.84725052 50.69159401 -10 50 C-9.97472938 43.60962769 -9.95716683 37.21926817 -9.94506836 30.82885742 C-9.94002692 28.65307127 -9.93319393 26.47728853 -9.92456055 24.30151367 C-9.91248662 21.18146933 -9.90676995 18.06146962 -9.90234375 14.94140625 C-9.89718246 13.96224747 -9.89202118 12.98308868 -9.88670349 11.97425842 C-9.88659019 10.62297096 -9.88659019 10.62297096 -9.88647461 9.24438477 C-9.884254 8.44718521 -9.88203339 7.64998566 -9.87974548 6.82862854 C-9.79949544 4.98077719 -9.79949544 4.98077719 -11 4 C-12.41225046 3.9071274 -13.82908934 3.88253228 -15.24438477 3.88647461 C-16.14524307 3.88655014 -17.04610138 3.88662567 -17.97425842 3.88670349 C-18.95341721 3.89186478 -19.93257599 3.89702606 -20.94140625 3.90234375 C-21.93881332 3.9037587 -22.9362204 3.90517365 -23.96385193 3.90663147 C-27.16343124 3.91224886 -30.36294169 3.92480429 -33.5625 3.9375 C-35.72591045 3.94251276 -37.88932199 3.94707605 -40.05273438 3.95117188 C-45.36851325 3.96222393 -50.68425171 3.97897896 -56 4 C-56.61378989 6.41224 -56.61378989 6.41224 -57 9 C-55.84364835 10.87864561 -55.84364835 10.87864561 -54.0625 12.3125 C-53.49660156 12.82425781 -52.93070313 13.33601563 -52.34765625 13.86328125 C-51.90292969 14.23839844 -51.45820312 14.61351563 -51 15 C-52.45754574 18.35296312 -54.30303426 20.55118299 -56.88305664 23.12597656 C-58.07923363 24.32676849 -58.07923363 24.32676849 -59.29957581 25.55181885 C-60.16106735 26.40612488 -61.0225589 27.26043091 -61.91015625 28.140625 C-62.79279648 29.02280701 -63.67543671 29.90498901 -64.58482361 30.81390381 C-66.44949352 32.67555417 -68.31593086 34.53518862 -70.18579102 36.39160156 C-72.58753544 38.77629496 -74.98258229 41.16758046 -77.37543583 43.56119156 C-79.65505156 45.84047095 -81.93890265 48.11549269 -84.22265625 50.390625 C-85.51792992 51.68422943 -85.51792992 51.68422943 -86.83937073 53.00396729 C-87.63366989 53.7918866 -88.42796906 54.57980591 -89.24633789 55.39160156 C-90.29985191 56.43939789 -90.29985191 56.43939789 -91.37464905 57.50836182 C-93 59 -93 59 -94 59 C-94.83528174 36.13898139 -94.83528174 36.13898139 -90 26 C-89.5875 25.08347656 -89.175 24.16695312 -88.75 23.22265625 C-81.36136187 8.25646595 -68.53062227 -2.28832487 -53 -8 C-35.00112791 -13.41676721 -15.57345877 -10.4439219 0 0 Z " fill="#FDFCFD" transform="translate(152,111)"/>
<path d="M0 0 C39.91489362 0 39.91489362 0 47 6.9375 C51.26785686 13.47265582 51.84558004 19.3062656 51 27 C48.81713671 31.52742016 46.00883728 34.0461199 42 37 C41.34 37.66 40.68 38.32 40 39 C40.53109375 39.23074219 41.0621875 39.46148437 41.609375 39.69921875 C47.62130571 42.4747999 51.46212837 45.72551736 54 52 C54.68926389 59.34916433 55.09274289 66.66284971 51 73 C46.39143148 78.12063169 42.80229224 79.44914041 36 82 C24.12 82 12.24 82 0 82 C0 54.94 0 27.88 0 0 Z " fill="#8C89A3" transform="translate(283,119)"/>
<path d="M0 0 C5.2237198 3.94702709 9.67354945 7.77947551 11.6875 14.1875 C12.15927491 18.43347415 12 22.72789653 12 27 C-2.85 27 -17.7 27 -33 27 C-29.85556913 37.80625849 -29.85556913 37.80625849 -22.23828125 45.16796875 C-19.14626288 46.31735778 -16.41681833 46.30188123 -13.125 46.3125 C-11.93132813 46.32925781 -10.73765625 46.34601563 -9.5078125 46.36328125 C-5.68469029 45.96734543 -3.32456115 44.87065762 0 43 C0.99 42.67 1.98 42.34 3 42 C4.20882096 39.99983534 4.20882096 39.99983534 5 38 C6.65 38.99 8.3 39.98 10 41 C9.25860209 45.29084038 7.38767022 46.94158029 4.08984375 49.60546875 C-3.23318513 54.49205064 -11.01637277 54.79068343 -19.4375 53.375 C-27.05999379 51.45623432 -32.37593454 47.54830879 -36.5 40.875 C-40.61454031 33.53740311 -40.79953505 26.31875788 -40 18 C-38.80990709 14.29639137 -37.15951567 11.2244008 -35 8 C-34.60425781 7.40445313 -34.20851563 6.80890625 -33.80078125 6.1953125 C-26.17743103 -3.98603896 -10.77185803 -6.42168459 0 0 Z " fill="#8B89A2" transform="translate(531,149)"/>
<path d="M0 0 C6.34944111 3.78524374 9.76061512 10.03567184 12 17 C12 20.3 12 23.6 12 27 C-3.18 27 -18.36 27 -34 27 C-30.68440746 37.95852163 -30.68440746 37.95852163 -23.50390625 45.10546875 C-17.41541525 47.28060828 -10.56538522 47.11993132 -4.42578125 45.19140625 C-1.74806266 43.91936618 0.51883661 42.50141036 2.578125 40.35546875 C3.04734375 39.90816406 3.5165625 39.46085937 4 39 C6.0625 39.125 6.0625 39.125 8 40 C8.66 40.99 9.32 41.98 10 43 C2.66262152 50.76898898 -4.00872911 53.8939884 -14.5625 54.3125 C-22.13380392 54.07589675 -27.70975329 51.25061965 -33.16796875 46.05078125 C-39.87112412 38.54724912 -40.97995553 30.8127034 -40.4765625 21.0703125 C-39.78001734 13.47131978 -36.62539738 8.23116135 -31.125 3.0625 C-21.42542582 -4.61029749 -11.1501628 -4.72333285 0 0 Z " fill="#8B88A2" transform="translate(254,149)"/>
<path d="M0 0 C4.18003061 2.72651996 7.15007825 6.41507851 8.71875 11.12109375 C8.83197825 12.54752515 8.89470476 13.97831865 8.92407227 15.40893555 C8.9539901 16.69993416 8.9539901 16.69993416 8.98451233 18.01701355 C9.00122482 18.9421022 9.01793732 19.86719086 9.03515625 20.8203125 C9.05593735 21.77049759 9.07671844 22.72068268 9.09812927 23.69966125 C9.16353052 26.73589831 9.22246604 29.77222206 9.28125 32.80859375 C9.32444417 34.86654544 9.36805876 36.92448834 9.41210938 38.98242188 C9.51920231 44.02855691 9.62049646 49.07477918 9.71875 54.12109375 C7.71920254 54.16363731 5.71833364 54.16190158 3.71875 54.12109375 C1.75052114 52.15286489 2.05626619 48.77300666 1.71875 46.12109375 C1.22375 46.86359375 0.72875 47.60609375 0.21875 48.37109375 C-3.569718 52.53840855 -7.33063909 54.73455084 -12.96484375 55.47265625 C-19.41694271 55.66953028 -25.88934071 55.2169511 -30.84765625 50.69140625 C-34.88873056 46.0631673 -35.58781198 42.24162389 -35.4921875 36.33203125 C-35.048365 31.68011393 -32.71612142 29.52760399 -29.40625 26.43359375 C-22.15976034 21.0711914 -14.60892559 20.96837463 -5.90625 21.05859375 C-5.07480469 21.06310547 -4.24335938 21.06761719 -3.38671875 21.07226562 C-1.35153103 21.08396211 0.68361923 21.1018944 2.71875 21.12109375 C1.85442857 14.48284053 1.85442857 14.48284053 -1.09375 8.62109375 C-6.32321516 5.03517478 -11.05558121 4.4282037 -17.28125 5.12109375 C-21.11878438 6.13614124 -24.42263978 7.26248353 -27.28125 10.12109375 C-29.40625 9.74609375 -29.40625 9.74609375 -31.28125 9.12109375 C-31.61125 7.80109375 -31.94125 6.48109375 -32.28125 5.12109375 C-23.66208142 -2.69002777 -10.78560208 -4.77582804 0 0 Z " fill="#8C89A2" transform="translate(388.28125,147.87890625)"/>
<path d="M0 0 C3.75375 -0.103125 7.5075 -0.20625 11.375 -0.3125 C12.53692871 -0.35802002 13.69885742 -0.40354004 14.89599609 -0.45043945 C22.3360839 -0.54828551 27.78514989 0.8260741 34 5 C38.46069304 9.56949043 39.34950284 13.5197087 39.2890625 19.71484375 C38.68501148 24.49011199 35.43068482 27.86423929 32 31 C25.15301097 34.36853015 19.02885552 34.36174099 11.5 34.1875 C7.705 34.125625 3.91 34.06375 0 34 C0 22.78 0 11.56 0 0 Z " fill="#FBFAFC" transform="translate(291,161)"/>
<path d="M0 0 C3.96 -0.103125 7.92 -0.20625 12 -0.3125 C13.84851563 -0.38078003 13.84851563 -0.38078003 15.734375 -0.45043945 C21.9779748 -0.52878773 26.31515419 -0.05437247 31.51171875 3.52661133 C34.59422674 6.57827401 35.30894318 9.63415214 35.375 13.875 C35.23225265 18.72840977 34.54087301 21.45912699 31 25 C22.26696689 31.22398796 10.05020626 29.2544356 0 29 C0 19.43 0 9.86 0 0 Z " fill="#FBFBFC" transform="translate(291,126)"/>
<path d="M0 0 C2.31 0 4.62 0 7 0 C7 4.95 7 9.9 7 15 C11.89153471 14.9604321 11.89153471 14.9604321 16.78295898 14.90991211 C18.52221717 14.90275087 20.26145304 14.94975298 22 15 C23 16 23 16 23 22 C17.72 22 12.44 22 7 22 C7.06880536 27.35731449 7.15673609 32.71384311 7.26245117 38.07055664 C7.2957174 39.89305919 7.32374406 41.71566519 7.34643555 43.53833008 C7.37995081 46.1575125 7.43226352 48.77574548 7.48828125 51.39453125 C7.49467117 52.21025101 7.5010611 53.02597076 7.50764465 53.8664093 C7.50786927 58.07894443 7.50786927 58.07894443 9.34465027 61.72099304 C11.87647241 63.67720693 14.05189603 63.28864852 17.1875 63.1875 C18.81751953 63.14689453 18.81751953 63.14689453 20.48046875 63.10546875 C21.31191406 63.07066406 22.14335937 63.03585938 23 63 C23 64.98 23 66.96 23 69 C18.43567638 71.35577993 14.02538776 71.70904942 9 71 C3.97498619 68.58054891 2.02789192 66.12328778 0 61 C-0.38511057 57.95238144 -0.35074751 54.95055438 -0.29296875 51.8828125 C-0.28872391 51.02565643 -0.28447906 50.16850037 -0.28010559 49.28536987 C-0.26339886 46.56491836 -0.22576219 43.84522518 -0.1875 41.125 C-0.17244278 39.27344825 -0.1587562 37.42188481 -0.14648438 35.5703125 C-0.11352165 31.04658567 -0.06179537 26.52342113 0 22 C-3.96 22 -7.92 22 -12 22 C-12 19.69 -12 17.38 -12 15 C-8.04 15 -4.08 15 0 15 C0 10.05 0 5.1 0 0 Z " fill="#8D8BA4" transform="translate(459,132)"/>
<path d="M0 0 C1.03253906 0.00676758 1.03253906 0.00676758 2.0859375 0.01367188 C3.76566335 0.02533664 5.44534375 0.04326729 7.125 0.0625 C7.6749585 6.66200203 6.98105406 11.56451325 3.125 17.0625 C-2.210664 22.1378877 -6.80643451 22.39849313 -13.9140625 22.35546875 C-18.05489912 21.94575536 -19.84200179 20.84957943 -22.875 18.0625 C-24.44435594 14.92378812 -24.22701103 12.52394178 -23.875 9.0625 C-17.32635695 0.82992016 -9.99456664 -0.12590055 0 0 Z " fill="#FCFCFD" transform="translate(383.875,173.9375)"/>
<path d="M0 0 C3.96491035 2.26340192 6.29304974 4.50344202 8.75 8.375 C9.245 12.335 9.245 12.335 9.75 16.375 C-2.79 16.375 -15.33 16.375 -28.25 16.375 C-25.49635762 5.36043046 -25.49635762 5.36043046 -19.4609375 1.1171875 C-13.05459112 -2.5326433 -6.76958388 -3.02849805 0 0 Z " fill="#FCFCFD" transform="translate(526.25,153.625)"/>
<path d="M0 0 C4.07294372 2.31343203 7.55661284 5.29260007 9.8125 9.4375 C10.3075 12.9025 10.3075 12.9025 10.8125 16.4375 C-1.7275 16.4375 -14.2675 16.4375 -27.1875 16.4375 C-26.08528781 8.72201468 -24.64174132 6.45133674 -19.1875 1.4375 C-13.24331382 -2.69758604 -6.55662238 -2.90848258 0 0 Z " fill="#FCFCFD" transform="translate(248.1875,153.5625)"/>
<path d="M0 0 C0 2.31 0 4.62 0 7 C-0.56847656 7.02578125 -1.13695312 7.0515625 -1.72265625 7.078125 C-7.28270856 7.48654287 -11.69880841 8.30180348 -16 12 C-19.60734347 17.23797235 -20.59877838 22.19070664 -20.609375 28.4375 C-20.62591125 29.20304199 -20.64244751 29.96858398 -20.65948486 30.75732422 C-20.70757106 33.17163424 -20.72924617 35.58531645 -20.75 38 C-20.7781929 39.64977051 -20.80812491 41.29951227 -20.83984375 42.94921875 C-20.91331815 46.96609401 -20.96313172 50.98262879 -21 55 C-23.31 55 -25.62 55 -28 55 C-28 37.51 -28 20.02 -28 2 C-25.69 2 -23.38 2 -21 2 C-20.67 4.31 -20.34 6.62 -20 9 C-19.29875 8.071875 -18.5975 7.14375 -17.875 6.1875 C-12.76615517 0.15107161 -7.51600886 -0.45096053 0 0 Z " fill="#8A87A1" transform="translate(587,146)"/>
<path d="M0 0 C-0.33 2.31 -0.66 4.62 -1 7 C-1.66386719 7.10957031 -2.32773437 7.21914062 -3.01171875 7.33203125 C-10.02851484 8.44866015 -10.02851484 8.44866015 -16 12 C-19.48291247 17.37151851 -20.59864931 22.11461837 -20.609375 28.4375 C-20.62591125 29.20304199 -20.64244751 29.96858398 -20.65948486 30.75732422 C-20.70757106 33.17163424 -20.72924617 35.58531645 -20.75 38 C-20.7781929 39.64977051 -20.80812491 41.29951227 -20.83984375 42.94921875 C-20.91331815 46.96609401 -20.96313172 50.98262879 -21 55 C-23.31 55 -25.62 55 -28 55 C-28 37.51 -28 20.02 -28 2 C-25.69 2 -23.38 2 -21 2 C-20.67 4.31 -20.34 6.62 -20 9 C-19.29875 8.071875 -18.5975 7.14375 -17.875 6.1875 C-12.76615517 0.15107161 -7.51600886 -0.45096053 0 0 Z " fill="#8A87A1" transform="translate(444,146)"/>
</svg>
